<svg width="19" height="19" viewBox="0 0 19 19" fill="none" xmlns="http://www.w3.org/2000/svg">
<rect x="1" y="1" width="17" height="17" rx="2" stroke="#070707" stroke-width="2"/>
<mask id="path-2-inside-1_2_99" fill="white">
<path fill-rule="evenodd" clip-rule="evenodd" d="M17.2859 1.17081C17.9527 1.53752 18.1959 2.37531 17.8292 3.04207L11.6175 14.3361C10.8649 15.7045 8.92486 15.7758 8.07376 14.4664L4.22276 8.54181C3.80805 7.9038 3.98907 7.0504 4.62708 6.63569C5.26509 6.22099 6.11849 6.40201 6.5332 7.04002L9.7573 12.0002L15.4147 1.71408C15.7814 1.04732 16.6192 0.804094 17.2859 1.17081Z"/>
</mask>
<path fill-rule="evenodd" clip-rule="evenodd" d="M17.2859 1.17081C17.9527 1.53752 18.1959 2.37531 17.8292 3.04207L11.6175 14.3361C10.8649 15.7045 8.92486 15.7758 8.07376 14.4664L4.22276 8.54181C3.80805 7.9038 3.98907 7.0504 4.62708 6.63569C5.26509 6.22099 6.11849 6.40201 6.5332 7.04002L9.7573 12.0002L15.4147 1.71408C15.7814 1.04732 16.6192 0.804094 17.2859 1.17081Z" fill="#070707"/>
<path d="M17.8292 3.04207L20.2826 4.39144V4.39144L17.8292 3.04207ZM17.2859 1.17081L18.6353 -1.2826L18.6353 -1.2826L17.2859 1.17081ZM11.6175 14.3361L14.0709 15.6855L14.0709 15.6855L11.6175 14.3361ZM8.07376 14.4664L5.72612 15.9924L5.72612 15.9924L8.07376 14.4664ZM4.22276 8.54181L1.87511 10.0678L4.22276 8.54181ZM4.62708 6.63569L6.15305 8.98334L6.15305 8.98334L4.62708 6.63569ZM6.5332 7.04002L8.88084 5.51405L6.5332 7.04002ZM9.7573 12.0002L7.40966 13.5262L9.95762 17.4461L12.2107 13.3496L9.7573 12.0002ZM15.4147 1.71408L12.9613 0.364702L12.9613 0.364704L15.4147 1.71408ZM20.2826 4.39144C21.3945 2.36971 20.657 -0.170645 18.6353 -1.2826L15.9366 3.62421C15.2483 3.24569 14.9973 2.38092 15.3758 1.69269L20.2826 4.39144ZM14.0709 15.6855L20.2826 4.39144L15.3758 1.69269L9.16408 12.9867L14.0709 15.6855ZM5.72612 15.9924C7.7303 19.0757 12.2987 18.9077 14.0709 15.6855L9.16408 12.9867C9.4311 12.5012 10.1194 12.4759 10.4214 12.9405L5.72612 15.9924ZM1.87511 10.0678L5.72612 15.9924L10.4214 12.9405L6.5704 7.01584L1.87511 10.0678ZM3.10112 4.28805C1.16654 5.54553 0.617639 8.1332 1.87511 10.0678L6.5704 7.01584C6.99846 7.6744 6.81161 8.55527 6.15305 8.98334L3.10112 4.28805ZM8.88084 5.51405C7.62336 3.57948 5.03569 3.03058 3.10112 4.28805L6.15305 8.98334C5.49449 9.4114 4.61362 9.22455 4.18555 8.56599L8.88084 5.51405ZM12.1049 10.4742L8.88084 5.51405L4.18555 8.56599L7.40966 13.5262L12.1049 10.4742ZM12.9613 0.364704L7.3039 10.6508L12.2107 13.3496L17.8681 3.06345L12.9613 0.364704ZM18.6353 -1.2826C16.6136 -2.39455 14.0732 -1.65703 12.9613 0.364702L17.8681 3.06345C17.4895 3.75167 16.6248 4.00274 15.9366 3.62421L18.6353 -1.2826Z" fill="#070707" mask="url(#path-2-inside-1_2_99)"/>
</svg>
