<svg display="none" xmlns="http://www.w3.org/2000/svg">
  <symbol id="arrow-prev" width="25" height="43" viewBox="0 0 25 43" fill="none">
    <rect x="21.1641" y="43" width="29.9303" height="5.42502" rx="2.71251" transform="rotate(-135 21.1641 43)" fill="#070707"/>
    <rect x="25" y="4.51978" width="29.9303" height="5.42502" rx="2.71251" transform="rotate(135 25 4.51978)" fill="#070707"/>
  </symbol>
  <symbol id="arrow-next" width="25" height="43" viewBox="0 0 25 43" fill="none">
    <rect x="3.83594" width="29.9303" height="5.42502" rx="2.71251" transform="rotate(45 3.83594 0)" fill="#070707"/>
    <rect y="38.4802" width="29.9303" height="5.42502" rx="2.71251" transform="rotate(-45 0 38.4802)" fill="#070707"/>
  </symbol>
  <symbol id="close" width="26" height="26" viewBox="0 0 26 26" fill="none">
    <rect x="2.82861" width="32" height="4" rx="2" transform="rotate(45 2.82861 0)" fill="currentcolor"/>
    <rect y="22.6289" width="32" height="4" rx="2" transform="rotate(-45 0 22.6289)" fill="currentcolor"/>
  </symbol>
  <symbol id="dark-close" width="26" height="26" viewBox="0 0 26 26" fill="none">
    <rect x="2.82861" width="32" height="4" rx="2" transform="rotate(45 2.82861 0)" fill="currentcolor"/>
    <rect y="22.6289" width="32" height="4" rx="2" transform="rotate(-45 0 22.6289)" fill="currentcolor"/>
  </symbol>
</svg>